<?xml version="1.0" encoding="iso-8859-1"?>
<!-- Generator: Adobe Illustrator 19.0.0, SVG Export Plug-In . SVG Version: 6.00 Build 0)  -->
<svg version="1.1" id="Layer_1" xmlns="http://www.w3.org/2000/svg" xmlns:xlink="http://www.w3.org/1999/xlink" x="0px" y="0px"
	 viewBox="0 0 512 512" style="enable-background:new 0 0 512 512;" xml:space="preserve">
<path style="fill:#F4BA48;" d="M311.614,211.862H200.386c-18.538,0-33.545-14.124-35.31-31.779L150.069,17.655
	c0-9.71,7.945-17.655,17.655-17.655h176.552c9.71,0,17.655,7.945,17.655,17.655l-15.007,162.428
	C345.159,197.738,330.152,211.862,311.614,211.862"/>
<path style="fill:#A3AAAF;" d="M256,388.414L256,388.414c-15.007,0-26.483-11.476-26.483-26.483v-61.793h52.966v61.793
	C282.483,376.938,271.007,388.414,256,388.414"/>
<g>
	<path style="fill:#798389;" d="M79.448,79.448H35.31c-15.007,0-26.483-11.476-26.483-26.483S20.303,26.483,35.31,26.483h44.138
		V79.448z"/>
	<path style="fill:#798389;" d="M432.552,26.483h44.138c15.007,0,26.483,11.476,26.483,26.483s-11.476,26.483-26.483,26.483h-44.138
		V26.483z"/>
</g>
<path style="fill:#BD9139;" d="M311.614,211.862H200.386c-1.766,0-2.648,0-4.414,0l13.241,74.152
	c1.766,8.828,8.828,14.124,17.655,14.124h59.145c8.828,0,15.89-6.179,17.655-14.124l13.241-74.152
	C315.145,211.862,313.379,211.862,311.614,211.862"/>
<path style="fill:#E0E0E0;" d="M256,388.414c-7.062,0-13.241-2.648-17.655-7.062v104.166L256,512l17.655-26.483V381.352
	C269.241,385.766,263.062,388.414,256,388.414"/>
<g>
	<path style="fill:#A3AAAF;" d="M151.834,35.31H79.448v35.31h75.034L151.834,35.31z"/>
	<path style="fill:#A3AAAF;" d="M360.165,35.31l-3.531,35.31h75.917V35.31H360.165z"/>
</g>
<g>
	<path style="fill:#BD9139;" d="M264.828,185.379h-17.655c-5.297,0-8.828-3.531-8.828-8.828s3.531-8.828,8.828-8.828h17.655
		c5.297,0,8.828,3.531,8.828,8.828S270.124,185.379,264.828,185.379"/>
	<path style="fill:#BD9139;" d="M282.483,150.069h-52.966c-5.297,0-8.828-3.531-8.828-8.828s3.531-8.828,8.828-8.828h52.966
		c5.297,0,8.828,3.531,8.828,8.828S287.779,150.069,282.483,150.069"/>
	<path style="fill:#BD9139;" d="M300.138,114.759h-88.276c-5.297,0-8.828-3.531-8.828-8.828c0-5.297,3.531-8.828,8.828-8.828h88.276
		c5.297,0,8.828,3.531,8.828,8.828C308.966,111.228,305.434,114.759,300.138,114.759"/>
</g>
<g>
</g>
<g>
</g>
<g>
</g>
<g>
</g>
<g>
</g>
<g>
</g>
<g>
</g>
<g>
</g>
<g>
</g>
<g>
</g>
<g>
</g>
<g>
</g>
<g>
</g>
<g>
</g>
<g>
</g>
</svg>
